<svg width="139" height="40" viewBox="0 0 139 40" fill="none" xmlns="http://www.w3.org/2000/svg">
<g clip-path="url(#clip0_7_210)">
<path d="M131.872 0H7.128C3.191 0 0 3.16 0 7.059V32.94C0 36.84 3.191 40 7.128 40H131.872C135.809 40 139 36.84 139 32.941V7.06C139 3.16 135.809 0 131.872 0Z" fill="black"/>
<path d="M48.787 27.39H43.209L41.865 31.313H39.507L44.789 16.811H47.253L52.54 31.311H50.178L48.787 27.389V27.39ZM43.787 25.58H48.209L46.071 19.217H46.011L43.787 25.58ZM63.954 26.058C63.954 29.338 62.172 31.452 59.498 31.452C58.8153 31.4832 58.1376 31.3221 57.542 30.987C56.9486 30.6535 56.4618 30.1587 56.138 29.56V34.79H53.892V20.78H56.013V22.545C56.356 21.959 56.853 21.475 57.451 21.146C58.0498 20.8167 58.726 20.6543 59.409 20.676C62.172 20.628 63.954 22.742 63.954 26.058ZM61.697 26.058C61.697 23.921 60.577 22.555 58.879 22.555C57.181 22.555 56.085 23.992 56.085 26.058C56.085 28.124 57.263 29.56 58.891 29.56C60.519 29.56 61.697 28.182 61.697 26.058ZM75.693 26.058C75.693 29.338 73.911 31.452 71.237 31.452C70.5561 31.4812 69.8805 31.3191 69.287 30.984C68.6954 30.6508 68.2101 30.1571 67.887 29.56V34.79H65.647V20.78H67.769V22.545C68.112 21.959 68.609 21.475 69.206 21.146C69.8048 20.8167 70.481 20.6543 71.164 20.676C73.912 20.628 75.694 22.742 75.694 26.058H75.693ZM73.436 26.058C73.436 23.921 72.316 22.555 70.618 22.555C68.92 22.555 67.824 23.992 67.824 26.058C67.824 28.124 69.002 29.56 70.63 29.56C72.257 29.56 73.448 28.159 73.448 26.058H73.436ZM83.468 27.226C83.633 28.662 85.036 29.561 87.004 29.561C88.974 29.561 90.176 28.62 90.176 27.319C90.176 26.018 89.375 25.521 87.476 25.054L85.576 24.599C82.886 23.956 81.637 22.707 81.637 20.687C81.637 18.188 83.842 16.472 86.967 16.472C90.091 16.472 92.178 18.188 92.249 20.687H90.002C89.872 19.239 88.658 18.352 86.902 18.352C85.144 18.352 83.931 19.239 83.931 20.523C83.931 21.551 84.697 22.147 86.584 22.613L88.2 23.009C91.207 23.715 92.456 24.913 92.456 27.026C92.456 29.732 90.276 31.439 86.808 31.439C83.566 31.439 81.373 29.781 81.232 27.154L83.468 27.226ZM97.187 18.235V20.735H99.215V22.451H97.187V28.288C97.187 29.198 97.587 29.618 98.484 29.618C98.724 29.631 98.964 29.631 99.204 29.618V31.324C98.815 31.397 98.4198 31.4319 98.024 31.428C95.867 31.428 95.018 30.622 95.018 28.578V22.45H93.426V20.735H94.982V18.236H97.187V18.235ZM100.394 26.059C100.394 22.732 102.374 20.647 105.452 20.647C108.53 20.647 110.511 22.737 110.511 26.059C110.511 29.381 108.565 31.441 105.452 31.441C102.34 31.441 100.394 29.363 100.394 26.059ZM108.293 26.059C108.293 23.724 107.232 22.427 105.463 22.427C103.694 22.427 102.669 23.721 102.669 26.059C102.669 28.396 103.718 29.691 105.499 29.691C107.279 29.691 108.329 28.36 108.329 26.059H108.293ZM112.326 20.734H114.465V22.555C114.605 21.992 114.938 21.494 115.406 21.145C115.876 20.7955 116.451 20.6172 117.036 20.64C117.29 20.6389 117.542 20.6661 117.79 20.721V22.753C117.48 22.6352 117.154 22.568 116.823 22.554C116.327 22.5121 115.831 22.6394 115.417 22.915C115.002 23.1906 114.693 23.5984 114.54 24.072C114.44 24.385 114.413 24.716 114.46 25.042V31.311H112.322L112.326 20.734ZM127.878 28.207C127.583 30.122 125.696 31.441 123.279 31.441C120.178 31.441 118.244 29.386 118.244 26.071C118.244 22.755 120.178 20.606 123.184 20.606C126.189 20.606 127.994 22.614 127.994 25.825V26.571H120.46V26.699C120.428 27.0597 120.467 27.4234 120.576 27.7687C120.685 28.1141 120.862 28.4344 121.096 28.711C121.572 29.2728 122.25 29.6239 122.983 29.688H123.325C123.843 29.7458 124.365 29.6316 124.812 29.363C125.257 29.0962 125.601 28.6893 125.789 28.206L127.878 28.207ZM120.473 25.054H125.819C125.836 24.721 125.787 24.388 125.675 24.0739C125.564 23.7599 125.391 23.471 125.167 23.224C124.712 22.7218 124.078 22.4186 123.401 22.38H123.2C122.666 22.3745 122.143 22.527 121.696 22.8183C121.249 23.1096 120.898 23.5266 120.687 24.017C120.55 24.3414 120.478 24.6897 120.476 25.042L120.473 25.054ZM40.97 12.947V6.52596H43.8C45.12 6.52596 45.91 7.13596 45.91 8.11996C45.9 8.44696 45.78 8.76196 45.565 9.01096C45.35 9.26096 45.055 9.42896 44.731 9.48896V9.56496C45.141 9.57596 45.531 9.74596 45.817 10.038C46.103 10.33 46.263 10.72 46.263 11.128C46.263 12.251 45.368 12.935 43.905 12.935L40.969 12.947H40.97ZM42.066 9.26596H43.363C44.33 9.26596 44.838 8.94496 44.838 8.33596C44.838 7.72596 44.362 7.40496 43.552 7.40496H42.067L42.066 9.26496V9.26596ZM43.646 12.102C44.625 12.102 45.155 11.739 45.155 11.032C45.155 10.325 44.612 9.96196 43.587 9.96196H42.066V12.017L43.646 12.102ZM47.384 11.452C47.384 10.511 48.096 9.95796 49.352 9.88696L50.791 9.79396V9.33996C50.791 8.77996 50.425 8.47596 49.706 8.47596C48.987 8.47596 48.716 8.68696 48.598 9.06496H47.583C47.689 8.16496 48.55 7.58196 49.753 7.58196C50.955 7.58196 51.84 8.23596 51.84 9.34696V12.955H50.79V12.211C50.6207 12.4751 50.3848 12.69 50.106 12.834C49.827 12.979 49.514 13.048 49.199 13.034C48.7776 13.0766 48.3564 12.952 48.026 12.687C47.8634 12.5566 47.7281 12.3954 47.6279 12.2127C47.5277 12.0299 47.4645 11.8292 47.442 11.622C47.414 11.5686 47.3944 11.5113 47.384 11.452ZM50.791 10.962V10.517L49.494 10.597C48.763 10.597 48.433 10.889 48.433 11.357C48.433 11.823 48.845 12.104 49.411 12.104C49.736 12.14 50.061 12.05 50.319 11.852C50.576 11.654 50.746 11.364 50.791 11.045V10.961V10.962ZM53.35 6.65596C53.343 6.52857 53.3758 6.40215 53.4439 6.29426C53.512 6.18638 53.612 6.10239 53.73 6.05396C53.8523 5.99942 53.9871 5.97927 54.1199 5.99565C54.2528 6.01204 54.3787 6.06435 54.484 6.14696C54.5841 6.22363 54.6568 6.33043 54.6916 6.4516C54.7263 6.57278 54.7212 6.70191 54.677 6.81996C54.6273 6.94119 54.5433 7.0453 54.4353 7.11954C54.3273 7.19378 54.2 7.23493 54.069 7.23796C53.9056 7.24961 53.744 7.19766 53.618 7.09296C53.4926 6.98897 53.4129 6.84 53.396 6.67796L53.35 6.65596ZM53.503 8.08896H54.553V12.935H53.504V8.08996L53.503 8.08896ZM58.148 11.079L56.97 12.947H55.79L57.547 10.332L55.767 7.69196H56.945L58.123 9.54896H58.205L59.384 7.69296H60.562L58.805 10.281L60.575 12.943H59.395L58.217 11.075L58.148 11.079ZM61.508 11.452C61.508 10.511 62.221 9.95796 63.477 9.88696L64.939 9.79396V9.33996C64.939 8.77996 64.573 8.47596 63.855 8.47596C63.135 8.47596 62.864 8.68696 62.746 9.06496H61.731C61.837 8.16496 62.699 7.58196 63.901 7.58196C65.103 7.58196 65.988 8.23596 65.988 9.34696V12.955H64.94V12.211H64.858C64.6873 12.4749 64.4506 12.6898 64.1714 12.8343C63.8922 12.9788 63.5801 13.048 63.266 13.035C62.8445 13.0773 62.4232 12.9523 62.093 12.687C61.9304 12.5566 61.7951 12.3954 61.6949 12.2127C61.5947 12.0299 61.5315 11.8292 61.509 11.622V11.452H61.508ZM64.939 10.962V10.517L63.642 10.597C62.912 10.597 62.581 10.889 62.581 11.357C62.581 11.823 62.993 12.104 63.56 12.104C63.884 12.14 64.21 12.05 64.467 11.852C64.725 11.654 64.894 11.364 64.939 11.045V10.961V10.962ZM67.604 7.67996H68.618V8.48596H68.701C68.813 8.20396 69.013 7.96496 69.271 7.80296C69.5304 7.64129 69.8341 7.56569 70.139 7.58696C70.297 7.56996 70.456 7.56996 70.614 7.58696V8.62596C70.4186 8.58585 70.2195 8.56608 70.02 8.56696C69.8533 8.55304 69.6855 8.57239 69.5264 8.62389C69.3673 8.67539 69.2199 8.75801 69.093 8.86696C68.9672 8.97544 68.8645 9.10809 68.791 9.25702C68.7175 9.40596 68.6747 9.56814 68.665 9.73396V12.944H67.615L67.604 7.67996ZM74.631 7.67996H75.646V8.51596H75.728C75.861 8.21796 76.085 7.96796 76.368 7.79996C76.651 7.63296 76.979 7.55696 77.308 7.58196C77.561 7.57087 77.8134 7.61525 78.0475 7.71199C78.2816 7.80872 78.4916 7.95547 78.663 8.14196C78.8324 8.32773 78.9586 8.54872 79.0324 8.78906C79.1063 9.0294 79.1259 9.28311 79.09 9.53196V12.944H78.04V9.78996C78.04 8.94796 77.675 8.52796 76.862 8.52796C76.685 8.51231 76.5066 8.53652 76.3402 8.59882C76.1737 8.66112 76.0233 8.75992 75.9 8.88796C75.7779 9.01564 75.6865 9.16941 75.6326 9.33763C75.5788 9.50585 75.5638 9.68412 75.589 9.85896V12.941H74.537L74.631 7.67896V7.67996ZM80.456 11.452C80.456 10.511 81.169 9.95796 82.425 9.88696L83.875 9.79396V9.33996C83.875 8.77996 83.509 8.47596 82.79 8.47596C82.072 8.47596 81.8 8.68696 81.682 9.06496H80.668C80.773 8.16496 81.635 7.58196 82.837 7.58196C84.039 7.58196 84.924 8.23596 84.924 9.34696V12.955H83.91V12.211H83.804C83.634 12.4756 83.3975 12.691 83.1181 12.8356C82.8387 12.9802 82.5263 13.049 82.212 13.035C81.7905 13.0773 81.3692 12.9523 81.039 12.687C80.8764 12.5566 80.7411 12.3954 80.6409 12.2127C80.5407 12.0299 80.4775 11.8292 80.455 11.622L80.456 11.452ZM83.876 10.962V10.517L82.578 10.597C81.848 10.597 81.517 10.889 81.517 11.357C81.517 11.823 81.929 12.104 82.496 12.104C82.7412 12.1275 82.9879 12.0787 83.2056 11.9635C83.4233 11.8483 83.6025 11.6719 83.721 11.456C83.799 11.313 83.847 11.156 83.863 10.994L83.875 10.961L83.876 10.962ZM28.117 19.402C28.137 18.429 28.401 17.476 28.887 16.63C29.3747 15.7822 30.0667 15.07 30.9 14.558C30.3647 13.8016 29.6604 13.1805 28.843 12.744C28.023 12.3054 27.1125 12.0628 26.183 12.035C24.203 11.825 22.28 13.202 21.278 13.202C20.275 13.202 18.696 12.035 17.021 12.035C15.9408 12.071 14.8879 12.3837 13.963 12.943C13.0417 13.4995 12.28 14.285 11.752 15.223C9.52301 19.181 11.175 24.891 13.356 28.091C14.452 29.643 15.714 31.371 17.396 31.301C19.076 31.231 19.652 30.274 21.616 30.274C23.58 30.274 24.14 31.301 25.849 31.267C27.559 31.233 28.715 29.714 29.764 28.149C30.5485 27.0485 31.1536 25.8308 31.557 24.541C30.5394 24.1158 29.6693 23.4008 29.055 22.485C28.4439 21.5729 28.1174 20.4998 28.117 19.402ZM24.85 9.95796C25.8034 8.82329 26.2728 7.35946 26.157 5.88196C24.6987 6.03634 23.3498 6.72703 22.372 7.81996C21.9003 8.35237 21.5389 8.97306 21.3087 9.64611C21.0785 10.3192 20.9841 11.0312 21.031 11.741C21.762 11.7492 22.4855 11.5931 23.148 11.284C23.8088 10.9753 24.391 10.5209 24.851 9.95496V9.95796H24.85Z" fill="white"/>
</g>
<defs>
<clipPath id="clip0_7_210">
<rect width="139" height="40" fill="white"/>
</clipPath>
</defs>
</svg>
