<svg width="24" height="24" viewBox="0 0 24 24" fill="none" xmlns="http://www.w3.org/2000/svg">
<path d="M24 12.0026C24.0005 9.70924 23.3438 7.46376 22.1077 5.53204C20.8716 3.60031 19.1078 2.06326 17.0252 1.10287C14.9426 0.142489 12.6284 -0.201004 10.3566 0.113067C8.08487 0.427137 5.95068 1.38562 4.20676 2.87502C2.46285 4.36441 1.18225 6.32235 0.516594 8.51699C-0.14906 10.7116 -0.171887 13.0511 0.450816 15.2583C1.07352 17.4655 2.31567 19.448 4.03019 20.9712C5.74471 22.4943 7.8598 23.4943 10.125 23.8526V15.4706H7.079V12.0026H10.125V9.35762C10.0596 8.74037 10.1307 8.11629 10.3333 7.52958C10.5359 6.94287 10.865 6.40788 11.2973 5.96249C11.7296 5.5171 12.2546 5.17221 12.835 4.95225C13.4154 4.73228 14.0371 4.64262 14.656 4.68962C15.556 4.70162 16.454 4.77962 17.343 4.92362V7.88062H15.831C15.5734 7.84684 15.3115 7.87144 15.0648 7.95259C14.818 8.03374 14.5926 8.16937 14.4053 8.34943C14.2181 8.52949 14.0737 8.74937 13.983 8.99278C13.8922 9.2362 13.8573 9.49691 13.881 9.75562V12.0056H17.209L16.677 15.4736H13.875V23.8606C16.6984 23.414 19.2697 21.9741 21.1259 19.8002C22.9821 17.6263 24.0013 14.8612 24 12.0026Z" fill="white"/>
</svg>
