<svg width="138" height="40" viewBox="0 0 138 40" fill="none" xmlns="http://www.w3.org/2000/svg">
<g clip-path="url(#clip0_7_290)">
<path d="M132.103 0H5.897C2.64 0 0 2.634 0 5.883V34.118C0 37.365 2.64 40 5.897 40H132.103C135.36 40 138 37.366 138 34.117V5.883C138 2.633 135.36 0 132.103 0Z" fill="black"/>
<path d="M69.156 21.319C68.2979 21.3229 67.4602 21.5803 66.748 22.059C66.2156 22.4154 65.7691 22.8857 65.4408 23.4358C65.1124 23.986 64.9105 24.6022 64.8495 25.24C64.7886 25.8777 64.8701 26.5211 65.0883 27.1234C65.3065 27.7258 65.6558 28.2722 66.111 28.723C66.7199 29.3277 67.4942 29.7387 68.3363 29.9042C69.1783 30.0696 70.0505 29.9823 70.843 29.653C71.6354 29.3263 72.3128 28.7716 72.7894 28.0592C73.2661 27.3469 73.5203 26.5091 73.52 25.652C73.5285 25.0786 73.4212 24.5094 73.2045 23.9784C72.9879 23.4475 72.6663 22.9657 72.259 22.562C71.8515 22.1574 71.3668 21.8389 70.8338 21.6254C70.3007 21.4118 69.7301 21.3076 69.156 21.319ZM69.156 28.283C68.6286 28.3195 68.1024 28.1971 67.6454 27.9315C67.1883 27.6659 66.8214 27.2693 66.592 26.793C66.3637 26.3167 66.2844 25.7827 66.3645 25.2606C66.4446 24.7386 66.6804 24.2529 67.041 23.867C67.4017 23.4813 67.8699 23.2127 68.3849 23.0958C68.8999 22.979 69.4381 23.0192 69.9299 23.2114C70.4218 23.4036 70.8447 23.7389 71.144 24.174C71.4434 24.6091 71.6053 25.1239 71.609 25.652C71.6343 26.1562 71.5064 26.6563 71.2423 27.0866C70.9782 27.5169 70.5901 27.8573 70.129 28.063C69.8226 28.2004 69.4918 28.2752 69.156 28.283ZM59.638 21.319C58.7802 21.3223 57.9424 21.579 57.23 22.057C56.5189 22.5346 55.9653 23.2122 55.6389 24.0042C55.3125 24.7961 55.228 25.667 55.396 26.507C55.5243 27.1351 55.7898 27.727 56.1737 28.2404C56.5575 28.7539 57.0501 29.1761 57.6163 29.4768C58.1824 29.7775 58.808 29.9494 59.4483 29.98C60.0886 30.0106 60.7278 29.8993 61.32 29.654C62.1124 29.326 62.7899 28.7706 63.267 28.058C63.7441 27.3466 63.9992 26.5096 64 25.653C64.0085 25.0796 63.9012 24.5104 63.6845 23.9794C63.4679 23.4485 63.1463 22.9667 62.739 22.563C62.3316 22.1583 61.8469 21.8397 61.3138 21.6262C60.7807 21.4127 60.2102 21.3085 59.636 21.32L59.639 21.319H59.638ZM59.638 28.283C59.1105 28.3204 58.5838 28.1987 58.1262 27.9336C57.6686 27.6685 57.301 27.2722 57.071 26.796C56.8421 26.3199 56.7622 25.7858 56.8418 25.2636C56.9213 24.7413 57.1567 24.2553 57.517 23.869C57.8775 23.4813 58.3463 23.211 58.8624 23.0933C59.3785 22.9756 59.9181 23.0159 60.411 23.209C60.9031 23.4016 61.326 23.7375 61.6248 24.1733C61.9236 24.6091 62.0847 25.1246 62.087 25.653C62.1123 26.1572 61.9844 26.6574 61.7203 27.0876C61.4562 27.5179 61.0681 27.8583 60.607 28.064C60.3006 28.2014 59.9698 28.2762 59.634 28.284L59.638 28.283ZM48.302 22.654V24.49H52.718C52.648 25.354 52.288 26.17 51.696 26.804C51.2539 27.2533 50.7226 27.6052 50.1364 27.837C49.5501 28.0688 48.9219 28.1754 48.292 28.15C46.9911 28.1502 45.7432 27.6345 44.822 26.716C44.3669 26.2619 44.0058 25.7226 43.7594 25.1288C43.513 24.535 43.3862 23.8984 43.3862 23.2555C43.3862 22.6126 43.513 21.976 43.7594 21.3822C44.0058 20.7884 44.3669 20.249 44.822 19.795C45.7432 18.8764 46.9911 18.3607 48.292 18.361C49.5361 18.341 50.7376 18.8141 51.634 19.677L52.932 18.382C52.3275 17.7715 51.6068 17.2884 50.8124 16.9612C50.018 16.6341 49.1661 16.4694 48.307 16.477C47.3983 16.4412 46.4917 16.5888 45.6413 16.9109C44.7908 17.233 44.014 17.7231 43.357 18.352C42.7016 18.9805 42.1799 19.735 41.8233 20.5702C41.4668 21.4053 41.2826 22.3039 41.282 23.212C41.282 24.12 41.4658 25.0187 41.8224 25.8538C42.179 26.6889 42.7011 27.4431 43.357 28.071C44.0134 28.7006 44.7902 29.1912 45.6408 29.5134C46.4913 29.8356 47.3982 29.9827 48.307 29.946C49.1389 29.9938 49.9715 29.8673 50.7516 29.5745C51.5317 29.2818 52.242 28.8293 52.837 28.246C53.4306 27.6634 53.8954 26.9627 54.2015 26.1894C54.5076 25.416 54.6481 24.587 54.614 23.756C54.617 23.3699 54.5825 22.9844 54.511 22.605L48.302 22.655V22.654ZM94.62 24.081C94.3025 23.1625 93.6621 22.3906 92.818 21.909C91.9731 21.4266 90.9821 21.2666 90.0283 21.4585C89.0745 21.6505 88.2226 22.1814 87.63 22.953C87.0395 23.7242 86.7499 24.6839 86.815 25.653C86.7958 26.5125 87.0387 27.3574 87.5113 28.0755C87.984 28.7936 88.664 29.3508 89.461 29.673C89.99 29.888 90.557 29.995 91.128 29.986C91.8432 29.9903 92.5484 29.8175 93.1805 29.483C93.8127 29.1485 94.3522 28.6627 94.751 28.069L93.268 27.049C93.0467 27.4174 92.7335 27.722 92.3591 27.9329C91.9846 28.1438 91.5618 28.2537 91.132 28.252C90.6897 28.2687 90.2526 28.1523 89.8771 27.9178C89.5017 27.6834 89.2052 27.3417 89.026 26.937L94.843 24.54L94.62 24.081ZM88.695 25.536C88.6634 25.0604 88.7758 24.5864 89.0177 24.1757C89.2596 23.765 89.6197 23.4369 90.051 23.234C90.337 23.098 90.648 23.021 90.964 23.007C91.2934 22.9855 91.6219 23.061 91.909 23.2242C92.196 23.3873 92.4289 23.631 92.579 23.925L88.695 25.535V25.536ZM83.977 29.736H85.889V16.986H83.972L83.977 29.736ZM80.844 22.287H80.774C80.4857 21.9653 80.1326 21.7081 79.738 21.5323C79.3433 21.3566 78.916 21.2661 78.484 21.267C77.368 21.3217 76.3156 21.8028 75.544 22.611C74.7739 23.4179 74.3442 24.4905 74.3442 25.606C74.3442 26.7215 74.7739 27.794 75.544 28.601C76.3158 29.4088 77.3681 29.8895 78.484 29.944C78.917 29.9511 79.3463 29.8635 79.7419 29.6874C80.1374 29.5112 80.4897 29.2506 80.774 28.924H80.833V29.546C80.833 31.209 79.943 32.096 78.513 32.096C78.0369 32.0844 77.5749 31.932 77.1854 31.6578C76.796 31.3837 76.4965 31.0003 76.325 30.556L74.658 31.249C74.9736 32.0099 75.5085 32.6596 76.1947 33.1154C76.8809 33.5711 77.6873 33.8122 78.511 33.808C80.752 33.808 82.601 32.492 82.601 29.291V21.574H80.844V22.287ZM78.656 28.287C77.998 28.2282 77.3856 27.9258 76.939 27.439C76.6051 27.0761 76.3796 26.6268 76.2882 26.1421C76.1969 25.6575 76.2432 25.1569 76.422 24.6973C76.6009 24.2377 76.905 23.8375 77.2999 23.542C77.6948 23.2466 78.1646 23.0678 78.656 23.026C79.322 23.076 79.945 23.376 80.398 23.865C80.7371 24.2295 80.9659 24.6826 81.0579 25.1718C81.15 25.661 81.1015 26.1663 80.9181 26.6291C80.7348 27.0919 80.424 27.4933 80.0219 27.7867C79.6197 28.0801 79.1427 28.2536 78.646 28.287H78.656ZM103.578 16.993H99.01V29.731H100.922V24.898H103.59C104.134 24.9365 104.681 24.8628 105.195 24.6815C105.71 24.5002 106.182 24.2151 106.582 23.844C107.182 23.2846 107.594 22.5531 107.762 21.75C107.929 20.947 107.844 20.1117 107.518 19.359C107.189 18.606 106.634 17.9735 105.931 17.5486C105.228 17.1236 104.41 16.9271 103.59 16.986L103.578 16.993ZM103.578 23.111H100.91V18.761H103.623C104.203 18.761 104.759 18.9914 105.169 19.4015C105.58 19.8117 105.81 20.368 105.81 20.948C105.81 21.528 105.58 22.0843 105.169 22.4944C104.759 22.9046 104.203 23.135 103.623 23.135L103.578 23.111ZM115.364 21.276C114.669 21.2348 113.977 21.397 113.372 21.7428C112.768 22.0886 112.277 22.6029 111.96 23.223L113.658 23.929C113.825 23.6205 114.078 23.3673 114.387 23.2C114.695 23.0328 115.045 22.9588 115.395 22.987C115.638 22.959 115.884 22.9795 116.118 23.0475C116.353 23.1154 116.572 23.2293 116.762 23.3825C116.952 23.5358 117.11 23.7254 117.226 23.9402C117.342 24.1551 117.415 24.3909 117.439 24.634V24.767C116.825 24.4424 116.141 24.2742 115.446 24.277C113.616 24.277 111.766 25.297 111.766 27.143C111.783 27.537 111.879 27.9235 112.049 28.2794C112.219 28.6353 112.459 28.9532 112.755 29.214C113.051 29.4756 113.396 29.6753 113.771 29.801C114.145 29.9267 114.541 29.976 114.935 29.946C115.416 29.9801 115.897 29.8846 116.329 29.6695C116.76 29.4544 117.126 29.1275 117.388 28.723H117.45V29.743H119.29V24.83C119.297 24.0848 119.067 23.3567 118.633 22.7511C118.199 22.1454 117.583 21.6936 116.875 21.461C116.405 21.3059 115.908 21.2514 115.415 21.301L115.364 21.276ZM115.129 28.26C114.505 28.26 113.636 27.944 113.636 27.18C113.636 26.16 114.72 25.823 115.681 25.823C116.288 25.8079 116.888 25.9557 117.418 26.251C117.354 26.8038 117.092 27.3147 116.68 27.689C116.268 28.0633 115.734 28.2763 115.177 28.289L115.129 28.26ZM125.995 21.581L123.807 27.111H123.746L121.477 21.581H119.432L122.836 29.31L120.894 33.603H122.887L128.121 21.581H125.995ZM108.811 29.738H110.723V16.986H108.811V29.738Z" fill="white"/>
<path d="M10.672 7.686C10.3397 8.06784 10.1702 8.56469 10.2 9.07V30.93C10.17 31.435 10.34 31.932 10.672 32.314L10.744 32.384L23.409 20.148V19.861L10.744 7.617L10.672 7.687V7.686Z" fill="#00E3FF"/>
<path d="M27.6 24.364L23.41 20.152V19.857L27.6 15.636L27.692 15.686L32.711 18.531C34.141 19.337 34.141 20.661 32.711 21.472L27.713 24.318L27.6 24.364Z" fill="#FFCC00"/>
<path d="M27.727 24.116L23.409 19.814L10.672 32.52C10.964 32.7748 11.3354 32.92 11.7227 32.931C12.11 32.9419 12.4891 32.8179 12.795 32.58L27.727 24.116Z" fill="#C31162"/>
<path d="M27.723 15.883L12.788 7.42001C12.482 7.18231 12.1029 7.05841 11.7156 7.06954C11.3282 7.08067 10.9569 7.22613 10.665 7.48101L23.412 20.188L27.722 15.883H27.723Z" fill="#00F076"/>
<path opacity="0.2" d="M27.6 23.997L12.788 32.41C12.4927 32.6301 12.1343 32.749 11.766 32.749C11.3977 32.749 11.0393 32.6301 10.744 32.41L10.672 32.482L10.744 32.554C11.0386 32.7757 11.3973 32.8955 11.766 32.8955C12.1347 32.8955 12.4934 32.7757 12.788 32.554L27.728 24.09L27.6 23.998V23.997Z" fill="black"/>
<path opacity="0.12" d="M10.672 32.322C10.3383 31.924 10.1695 31.4134 10.2 30.895V31.048C10.17 31.566 10.338 32.077 10.672 32.475L10.744 32.403L10.672 32.323V32.322ZM32.71 21.28L27.6 24.164L27.692 24.256L32.711 21.422C32.9953 21.2887 33.2395 21.0828 33.4189 20.8251C33.5983 20.5673 33.7066 20.2669 33.733 19.954C33.6756 20.2384 33.5536 20.5058 33.3763 20.7355C33.1991 20.9653 32.9715 21.1512 32.711 21.279L32.71 21.28Z" fill="black"/>
<path opacity="0.25" d="M12.788 7.56299L32.711 18.857C32.9713 18.9853 33.1988 19.1715 33.3759 19.4014C33.5531 19.6312 33.6752 19.8986 33.733 20.183C33.7073 19.8699 33.5993 19.5691 33.4198 19.3113C33.2403 19.0535 32.9957 18.8477 32.711 18.715L12.788 7.41999C11.358 6.61399 10.193 7.28699 10.193 8.91999V9.07199C10.227 7.42999 11.368 6.75699 12.788 7.56199V7.56299Z" fill="white"/>
<path d="M42.258 13.095V6.97697H44.14C44.554 6.95852 44.9674 7.02395 45.3554 7.16933C45.7434 7.31471 46.0981 7.53705 46.398 7.82297C46.6809 8.11548 46.9013 8.46256 47.0457 8.84303C47.1901 9.2235 47.2556 9.62939 47.238 10.036C47.2548 10.4432 47.1881 10.8496 47.0421 11.2302C46.8961 11.6108 46.6739 11.9574 46.389 12.249C46.0892 12.5353 45.7344 12.7579 45.3461 12.9033C44.9579 13.0487 44.5442 13.1139 44.13 13.095H42.258ZM43.045 12.34H44.129C44.5959 12.3795 45.0629 12.2647 45.4583 12.0132C45.8537 11.7618 46.1557 11.3876 46.318 10.948C46.425 10.656 46.466 10.345 46.44 10.036C46.4804 9.57044 46.3662 9.10457 46.1151 8.71049C45.864 8.3164 45.49 8.01607 45.051 7.85597C44.76 7.74881 44.4491 7.70616 44.14 7.73097H43.046V12.341L43.045 12.34ZM48.35 13.093V6.97597H49.137V13.093H48.351H48.35ZM52.267 13.232C51.7959 13.2236 51.3389 13.0703 50.958 12.793C50.5351 12.5049 50.236 12.0683 50.12 11.57L50.836 11.284C50.918 11.613 51.1 11.908 51.357 12.13C51.603 12.354 51.924 12.478 52.257 12.477C52.571 12.487 52.88 12.394 53.136 12.212C53.2539 12.1302 53.3493 12.0202 53.4136 11.8919C53.4779 11.7637 53.509 11.6213 53.504 11.478C53.5103 11.3272 53.4802 11.1771 53.4161 11.0404C53.3521 10.9037 53.256 10.7846 53.136 10.693C52.783 10.4559 52.3925 10.2801 51.981 10.173C51.5231 10.0507 51.0997 9.82416 50.744 9.51097C50.6082 9.3786 50.5009 9.2198 50.4289 9.04436C50.3568 8.86893 50.3214 8.68059 50.325 8.49097C50.3253 8.27445 50.3719 8.0605 50.4618 7.86351C50.5516 7.66653 50.6826 7.49108 50.846 7.34897C51.218 7.01297 51.706 6.83597 52.208 6.85597C52.662 6.83497 53.11 6.97197 53.475 7.24297C53.767 7.45497 53.988 7.74997 54.109 8.08897L53.393 8.38397C53.33 8.16696 53.1967 7.97702 53.014 7.84397C52.7861 7.68036 52.5126 7.59235 52.232 7.59235C51.9514 7.59235 51.6779 7.68036 51.45 7.84397C51.3032 7.94955 51.1986 8.10369 51.1547 8.27905C51.1108 8.45442 51.1304 8.63967 51.21 8.80197C51.262 8.90328 51.3374 8.9907 51.43 9.05697C51.693 9.24397 51.987 9.38597 52.298 9.47397C52.555 9.55597 52.808 9.65097 53.054 9.75997C53.271 9.86097 53.477 9.98397 53.668 10.127C53.871 10.271 54.033 10.464 54.14 10.689C54.252 10.935 54.308 11.203 54.303 11.473C54.309 11.749 54.245 12.023 54.12 12.269C54.0034 12.4916 53.8325 12.6812 53.623 12.82C53.4219 12.958 53.201 13.0648 52.968 13.137C52.738 13.202 52.5 13.233 52.261 13.229L52.266 13.232H52.267ZM56.225 13.093H55.435V6.97597H57.479C57.979 6.96897 58.462 7.15597 58.829 7.49597C59.0094 7.66211 59.1534 7.86386 59.2519 8.08848C59.3504 8.3131 59.4013 8.5557 59.4013 8.80097C59.4013 9.04624 59.3504 9.28884 59.2519 9.51346C59.1534 9.73808 59.0094 9.93983 58.829 10.106C58.4632 10.4473 57.9793 10.6337 57.479 10.626H56.225V13.093ZM56.225 9.86097H57.555C57.8389 9.86045 58.1111 9.74764 58.3121 9.54717C58.5131 9.34671 58.6267 9.07486 58.628 8.79097C58.628 8.65012 58.6002 8.51065 58.5462 8.38057C58.4921 8.25049 58.413 8.13236 58.3132 8.03295C58.2134 7.93354 58.095 7.8548 57.9647 7.80127C57.8344 7.74773 57.6948 7.72044 57.554 7.72097H56.225V9.86097ZM65.427 12.295C64.8295 12.8891 64.0211 13.2226 63.1785 13.2226C62.3359 13.2226 61.5275 12.8891 60.93 12.295C60.3496 11.6821 60.0262 10.8701 60.0262 10.026C60.0262 9.18188 60.3496 8.36988 60.93 7.75697C61.3739 7.31051 61.9408 7.00637 62.5582 6.8833C63.1757 6.76024 63.8158 6.82383 64.397 7.06597C64.782 7.22597 65.133 7.46097 65.427 7.75597C66.0099 8.36777 66.3351 9.18042 66.3351 10.0255C66.3351 10.8705 66.0099 11.6832 65.427 12.295ZM61.513 11.785C61.9556 12.2254 62.5546 12.4726 63.179 12.4726C63.8034 12.4726 64.4024 12.2254 64.845 11.785C65.2812 11.3051 65.5228 10.6799 65.5228 10.0315C65.5228 9.38301 65.2812 8.75783 64.845 8.27797C64.4024 7.83756 63.8034 7.59033 63.179 7.59033C62.5546 7.59033 61.9556 7.83756 61.513 8.27797C61.0746 8.75737 60.831 9.38318 60.8299 10.0328C60.8288 10.6824 61.0702 11.3091 61.507 11.79L61.513 11.785ZM67.467 13.093V6.97597H68.427L71.413 11.736V6.97597H72.2V13.093H71.382L68.265 8.10697V13.093H67.467ZM73.6 13.256V7.13797H74.387V13.256H73.6ZM74.336 6.65897H73.651L74.101 5.56897H74.959L74.336 6.65897ZM77.321 13.093L75.164 6.97597H76.034L77.684 11.942L79.493 6.97597H80.363L78.134 13.093H77.321ZM84.844 7.72997H82.044V9.66697H84.559V10.402H82.044V12.339H84.845V13.093H81.267V6.97597H84.844V7.72997ZM86.07 13.093V6.97597H86.888V12.339H89.546V13.093H86.07ZM92.563 13.093V6.97597H93.524L96.509 11.736V6.97597H97.296V13.093H96.479L93.36 8.10697V13.093H92.562H92.563ZM103.715 12.295C103.117 12.8891 102.309 13.2226 101.466 13.2226C100.623 13.2226 99.8147 12.8891 99.217 12.295C98.6364 11.6822 98.3128 10.8701 98.3128 10.026C98.3128 9.18181 98.6364 8.36976 99.217 7.75697C99.5118 7.4606 99.8622 7.22542 100.248 7.06494C100.634 6.90445 101.048 6.82184 101.466 6.82184C101.884 6.82184 102.298 6.90445 102.684 7.06494C103.07 7.22542 103.42 7.4606 103.715 7.75697C104.298 8.36872 104.623 9.18116 104.623 10.026C104.623 10.8708 104.298 11.6832 103.715 12.295ZM99.8 11.785C100.242 12.2259 100.841 12.4734 101.466 12.4734C102.091 12.4734 102.69 12.2259 103.132 11.785C103.569 11.3054 103.811 10.6801 103.811 10.0315C103.811 9.38282 103.569 8.75751 103.132 8.27797C102.69 7.83708 102.091 7.58951 101.466 7.58951C100.841 7.58951 100.242 7.83708 99.8 8.27797C99.3638 8.75783 99.1222 9.38301 99.1222 10.0315C99.1222 10.6799 99.3638 11.3051 99.8 11.785Z" fill="white" stroke="white" stroke-width="0.2" stroke-miterlimit="10"/>
</g>
<defs>
<clipPath id="clip0_7_290">
<rect width="138" height="40" fill="white"/>
</clipPath>
</defs>
</svg>
