<svg width="24" height="24" viewBox="0 0 24 24" fill="none" xmlns="http://www.w3.org/2000/svg">
<path d="M19.2362 7.45824C18.9662 7.72829 18.5999 7.88 18.218 7.88C17.8361 7.88 17.4698 7.72829 17.1998 7.45824C16.9297 7.18819 16.778 6.82191 16.778 6.44C16.778 6.05809 16.9297 5.69182 17.1998 5.42177C17.4698 5.15172 17.8361 5 18.218 5C18.5999 5 18.9662 5.15172 19.2362 5.42177C19.5063 5.69182 19.658 6.05809 19.658 6.44C19.658 6.82191 19.5063 7.18819 19.2362 7.45824Z" fill="white"/>
<path fill-rule="evenodd" clip-rule="evenodd" d="M6 12.602C6 15.911 8.69098 18.602 12 18.602C15.309 18.602 18 15.911 18 12.602C18 9.293 15.309 6.60201 12 6.60201C8.69098 6.60201 6 9.293 6 12.602ZM9 12.602C9 10.947 10.345 9.60201 12 9.60201C13.655 9.60201 15 10.947 15 12.602C15 14.257 13.655 15.602 12 15.602C10.345 15.602 9 14.257 9 12.602Z" fill="white"/>
<path fill-rule="evenodd" clip-rule="evenodd" d="M0 18C0 21.084 2.91602 24 6 24H18C21.084 24 24 21.084 24 18V6C24 2.916 21.084 0 18 0H6C2.91602 0 0 2.916 0 6V18ZM3 6C3 4.59801 4.59802 3 6 3H18C19.402 3 21 4.59801 21 6V18C21 19.402 19.402 21 18 21H6C4.57001 21 3 19.43 3 18V6Z" fill="white"/>
</svg>
