<svg width="24" height="20" viewBox="0 0 24 20" fill="none" xmlns="http://www.w3.org/2000/svg">
<path d="M24 2.25C23.1 2.7 22.2 2.85 21.15 3C22.2 2.4 22.95 1.5 23.25 0.3C22.35 0.9 21.3 1.2 20.1 1.5C19.2 0.6 17.85 0 16.5 0C13.95 0 11.7 2.25 11.7 4.95C11.7 5.4 11.7 5.7 11.85 6C7.8 5.85 4.05 3.9 1.65 0.9C1.2 1.65 1.05 2.4 1.05 3.45C1.05 5.1 1.95 6.6 3.3 7.5C2.55 7.5 1.8 7.2 1.05 6.9C1.05 9.3 2.7 11.25 4.95 11.7C4.5 11.85 4.05 11.85 3.6 11.85C3.3 11.85 3 11.85 2.7 11.7C3.3 13.65 5.1 15.15 7.35 15.15C5.7 16.5 3.6 17.25 1.2 17.25H0C2.25 18.6 4.8 19.5 7.5 19.5C16.5 19.5 21.45 12 21.45 5.55V4.95C22.5 4.2 23.4 3.3 24 2.25Z" fill="white"/>
</svg>
